<svg preserveAspectRatio="xMidYMid meet" data-bbox="0 -0.01 1139.84 296.649" viewBox="0 0 1139.85 296.64" xmlns="http://www.w3.org/2000/svg" data-type="ugc" role="presentation" aria-hidden="true" aria-label="">
    <g>
        <defs>
            <linearGradient gradientUnits="userSpaceOnUse" gradientTransform="rotate(39.68 -1100.129 85.333)" y2="-618.18" x2="-240.62" y1="-618.18" x1="40.39" id="06930ac1-2009-4e03-985a-724c277ea24f_comp-l3mj9wxv">
                <stop stop-color="#004071" offset="0"></stop>
                <stop stop-color="#00497b" offset=".06"></stop>
                <stop stop-color="#0074ac" offset=".37"></stop>
                <stop stop-color="#0093d0" offset=".64"></stop>
                <stop stop-color="#00a6e6" offset=".86"></stop>
                <stop stop-color="#00adee" offset="1"></stop>
            </linearGradient>
            <linearGradient gradientUnits="userSpaceOnUse" gradientTransform="rotate(39.68 -1100.129 85.333)" y2="-563.75" x2="-89.42" y1="-563.75" x1="-89.11" id="41887f8a-355d-4085-8106-c832b31b42b9_comp-l3mj9wxv">
                <stop stop-color="#c8c82d" offset="0"></stop>
                <stop stop-color="#839b3f" offset="1"></stop>
            </linearGradient>
        </defs>
        <path d="M348 82.85c23.87 0 39.63 14.69 39.63 36.18s-15.77 36.18-39.63 36.18h-28.62V82.85H348Zm-.65 56.91c13.5 0 22.36-8.21 22.36-20.74s-8.85-20.74-22.36-20.74H337.2v41.47h10.15Z" fill="#00adee"></path>
        <path d="M393.91 155.21V82.85h17.82v72.36h-17.82Z" fill="#00adee"></path>
        <path d="m479.75 102.18-17.5 3.56c-1.3-6.8-6.91-10.15-12.64-10.15s-9.72 3.24-9.72 7.34c0 2.92 1.29 5.08 5.83 6.05l15.01 3.35c12.53 2.81 19.87 9.61 19.87 21.06 0 15.44-13.72 23.43-29.81 23.43s-29.7-7.78-31.64-21.92l18.36-3.56c1.83 7.45 7.02 10.69 14.25 10.69 6.7 0 10.69-3.02 10.69-7.45 0-3.24-1.51-5.29-6.7-6.37l-15.12-3.24c-10.37-2.38-19.44-7.78-19.44-20.95 0-14.04 11.66-22.79 28.62-22.79 15.77 0 27.21 7.78 29.92 20.95Z" fill="#00adee"></path>
        <path d="M523.06 82.85c16.31 0 26.57 10.04 26.57 24.95s-10.58 25.27-27.33 25.27h-17.06v22.14h-17.82V82.85h35.64Zm-2.05 35.31c6.91 0 11.13-4 11.13-10.15 0-5.83-4.21-9.94-11.13-9.94h-15.77v20.09h15.77Z" fill="#00adee"></path>
        <path d="M608.82 155.21h-53.46V82.85h17.82v56.8h35.64v15.55Z" fill="#00adee"></path>
        <path d="m668.44 155.21-5.07-13.18h-30.46l-5.08 13.18h-19.11l30.24-72.36h18.25l30.24 72.36h-19.01Zm-20.3-52.27-9.18 23.76h18.47l-9.29-23.76Z" fill="#00adee"></path>
        <path d="M759.35 128.1c-3.35 18.15-17.93 28.73-36.5 28.73-21.49 0-38.45-16.52-38.45-37.8s16.95-37.8 38.45-37.8c17.82 0 32.94 10.58 36.4 27.76l-17.5 4.1c-2.27-10.48-9.61-15.55-18.9-15.55-11.45 0-20.63 9.18-20.63 21.49s9.18 21.6 20.63 21.6c9.18 0 16.52-5.18 19.01-15.98l17.5 3.46Z" fill="#00adee"></path>
        <path d="M825.78 155.21h-56.37V82.85h56.05v15.33h-38.23v13.61h35.1v14.47h-35.1v13.61h38.56v15.34Z" fill="#00adee"></path>
        <path d="M920.39 155.21h-17.28v-38.56l-20.3 38.56h-8.21l-20.41-38.77v38.77h-17.28V82.85h17.49l24.3 45.9 24.3-45.9h17.39v72.36Z" fill="#00adee"></path>
        <path d="M989.31 155.21h-56.37V82.85h56.05v15.33h-38.23v13.61h35.1v14.47h-35.1v13.61h38.56v15.34Z" fill="#00adee"></path>
        <path d="M1069.56 155.21h-14.69l-36.61-41.9v41.9h-17.82V82.85h14.8l36.61 43.2v-43.2h17.71v72.36Z" fill="#00adee"></path>
        <path d="M1116.41 98.4v56.81h-17.71V98.4h-23.44V82.85h64.58V98.4h-23.44Z" fill="#00adee"></path>
        <path d="m384 189.29-20.29 4.13c-1.5-7.89-8.02-11.77-14.66-11.77s-11.27 3.76-11.27 8.52c0 3.38 1.5 5.89 6.76 7.02l17.41 3.88c14.53 3.26 23.05 11.15 23.05 24.43 0 17.91-15.91 27.18-34.57 27.18s-34.44-9.02-36.7-25.43l21.29-4.13c2.13 8.65 8.14 12.4 16.54 12.4 7.77 0 12.4-3.5 12.4-8.64 0-3.76-1.76-6.14-7.77-7.39l-17.54-3.76c-12.02-2.76-22.54-9.02-22.54-24.3 0-16.28 13.53-26.43 33.19-26.43 18.29 0 31.57 9.02 34.7 24.3Z" fill="#003b64"></path>
        <path d="M477.14 208.96c0 24.43-19.66 43.72-44.72 43.72s-44.72-19.29-44.72-43.72 19.67-43.97 44.72-43.97 44.72 19.42 44.72 43.97Zm-20.67 0c0-14.41-10.39-25.05-24.05-25.05s-24.05 10.65-24.05 25.05 10.4 24.8 24.05 24.8 24.05-10.52 24.05-24.8Z" fill="#003b64"></path>
        <path d="M543.04 250.79h-62v-83.92h20.67v65.89h41.33v18.04Z" fill="#003b64"></path>
        <path d="M620.58 214.42c0 24.05-14.91 39.71-37.2 39.71s-38.08-15.66-38.08-39.71v-46.1h20.67v46.1c0 12.78 6.89 20.67 17.41 20.67 9.9 0 16.53-7.89 16.53-20.67v-46.1h20.67v46.1Z" fill="#003b64"></path>
        <path d="M672.98 186.36v65.88h-20.54v-65.88h-27.18v-18.04h74.9v18.04h-27.18Z" fill="#003b64"></path>
        <path d="M709.93 252.24v-83.92h20.67v83.92h-20.67Z" fill="#003b64"></path>
        <path d="M831.68 210.41c0 24.43-19.66 43.72-44.72 43.72s-44.72-19.29-44.72-43.72 19.67-43.97 44.72-43.97 44.72 19.42 44.72 43.97Zm-20.67 0c0-14.41-10.39-25.05-24.05-25.05s-24.05 10.65-24.05 25.05 10.4 24.8 24.05 24.8 24.05-10.52 24.05-24.8Z" fill="#003b64"></path>
        <path d="M917.68 252.24h-17.03l-42.46-48.6v48.6h-20.67v-83.92h17.16l42.46 50.1v-50.1h20.54v83.92Z" fill="#003b64"></path>
        <path d="m994.17 190.74-20.29 4.13c-1.5-7.89-8.02-11.77-14.66-11.77s-11.27 3.76-11.27 8.52c0 3.38 1.5 5.89 6.76 7.02l17.41 3.88c14.53 3.26 23.05 11.15 23.05 24.43 0 17.91-15.91 27.18-34.57 27.18s-34.44-9.02-36.7-25.43l21.29-4.13c2.13 8.65 8.14 12.4 16.54 12.4 7.77 0 12.4-3.5 12.4-8.64 0-3.76-1.76-6.14-7.77-7.39l-17.54-3.76c-12.02-2.76-22.54-9.02-22.54-24.3 0-16.28 13.53-26.43 33.19-26.43 18.29 0 31.57 9.02 34.7 24.3Z" fill="#003b64"></path>
        <path d="M1006.3 201.88c0 2.49-1.9 4.39-4.49 4.39s-4.44-1.9-4.44-4.39c0-2.34 1.85-4.39 4.44-4.39s4.49 2.05 4.49 4.39Z" fill="#b1d135"></path>
        <path d="M1050.76 186.94c0 11.12-8.96 19.91-20.36 19.91s-20.36-8.78-20.36-19.91 8.96-20.02 20.36-20.02 20.36 8.84 20.36 20.02Zm-9.41 0c0-6.56-4.73-11.41-10.95-11.41s-10.95 4.85-10.95 11.41 4.73 11.29 10.95 11.29 10.95-4.79 10.95-11.29Z" fill="#b1d135"></path>
        <path d="m1079.74 205.98-11.52-13.12h-2.74v13.12h-9.41v-38.21h19.33c8.27 0 13.75 5.02 13.75 12.49 0 6.27-3.88 10.78-10.04 12.15l11.98 13.57h-11.35Zm-5.36-20.99c3.36 0 5.53-1.83 5.53-4.62s-2.17-4.56-5.53-4.56h-8.9v9.18h8.9Z" fill="#b1d135"></path>
        <path d="M1133.07 183.46c.17 1.37.23 2.51.23 3.48 0 11.58-8.27 19.91-19.79 19.91s-20.59-8.73-20.59-19.96 8.95-19.96 20.42-19.96c8.5 0 15.97 3.99 18.65 11.46l-9.07 2.62c-2.22-4.33-5.87-5.48-9.58-5.48-6.22 0-10.95 4.9-10.95 11.35s4.85 11.41 11.24 11.41c5.02 0 8.67-2.62 10.1-6.84h-11.69v-7.98h21.05Z" fill="#b1d135"></path>
        <path d="M189.05 64.63c-34.2-18.77-72.35-17.04-91.72 6.47-6.17 7.47-9.78 16.4-11.07 26.05 25.11-8.41 58.96-.77 86.71 22.11 27.74 22.88 41.69 54.63 38.21 80.91 9.25-3.11 17.32-8.36 23.47-15.84 19.38-23.49 13.82-61.26-11.12-91.28a173.755 173.755 0 0 0-16.3-15.34c-5.88-4.84-11.95-9.19-18.18-13.08Z" fill="#f6eb1a"></path>
        <path d="M91.14 218.78c51.61 42.65 119.49 48.52 163.93 17.73 19.47-43.7 7.12-100.27-31.94-142.4 24.8 29.92 30.42 67.37 11.25 90.47-6.09 7.34-14.08 12.48-23.24 15.48-1.24 9.52-4.78 18.3-10.86 25.6-22.58 27.23-71.31 24.06-108.96-6.98" fill="#00ab4e"></path>
        <path d="M91.29 218.67c-.09-.08-.19-.16-.28-.24-37.69-31.28-49.91-78.77-27.27-106.04 6.08-7.33 14.05-12.44 23.17-15.4 1.27-9.55 4.83-18.36 10.93-25.7 19.17-23.11 57.01-24.5 91-5.63-48.62-30.63-106.5-32.32-145.86-5.12-22.09 49.43-3.71 115.2 47.91 158.03" fill="#3a71b7"></path>
        <path d="M124.92 177.54c-27.58-22.88-41.45-54.5-38.01-80.56-9.12 2.97-17.09 8.08-23.17 15.4-22.64 27.27-10.43 74.77 27.27 106.04 37.69 31.26 86.62 34.52 109.26 7.22 6.08-7.31 9.61-16.1 10.86-25.61-24.97 8.19-58.6.4-86.19-22.5Z" fill="url(#06930ac1-2009-4e03-985a-724c277ea24f_comp-l3mj9wxv)"></path>
        <path d="M188.82 65.72c6.33 3.52 12.52 7.73 18.44 12.65 5.91 4.91 11.2 10.22 15.82 15.78 39.08 42.12 51.43 98.7 31.96 142.4 7.33-5.09 14.05-11.14 19.94-18.23 41.54-50.06 26.46-131.1-33.68-181-60.13-49.89-142.56-49.76-184.1.31-5.88 7.08-10.58 14.81-14.23 22.95 39.36-27.2 97.24-25.49 145.86 5.13Z" fill="#00adee"></path>
        <path d="M92.21 231.13c.07.07.15.12.24.19" fill="url(#41887f8a-355d-4085-8106-c832b31b42b9_comp-l3mj9wxv)"></path>
        <path d="M91.06 218.48c-51.63-42.83-70.01-108.6-47.91-158.03-7.32 5.06-14.02 11.08-19.87 18.14-41.36 49.84-26.14 130.7 34 180.6 60.13 49.89 142.41 49.94 183.78.1 5.86-7.06 10.54-14.75 14.16-22.88-44.52 30.84-112.54 24.91-164.17-17.92Z" fill="#b1d135"></path>
    </g>
</svg>