<svg version="1.2" xmlns="http://www.w3.org/2000/svg" viewBox="0 0 181 103" width="181" height="103"><style>.a{fill:#231f20}.b{fill:#f2cf04}.c{fill:#ed1c24}</style><path fill-rule="evenodd" class="a" d="m157.2 55.9v-6.1q0-1.3-0.4-1.8-0.4-0.5-1.2-0.5-0.8 0-1.2 0.3-0.5 0.4-0.8 0.7v7.4h-1.6v-14.1l1.6-0.2v5.7h0.1q0-0.1 0.2-0.3 0.2-0.2 0.5-0.4 0.3-0.2 0.7-0.3 0.4-0.2 1-0.2 1.2 0 2 0.8 0.7 0.8 0.7 2.7v6.3zm-7.5-7.7q-0.1-0.1-0.2-0.2-0.2-0.1-0.4-0.2-0.2-0.1-0.4-0.2-0.3-0.1-0.7-0.1-0.5 0-0.9 0.2-0.5 0.2-0.8 0.6-0.3 0.4-0.5 1.1-0.2 0.6-0.2 1.6 0 1 0.2 1.8 0.1 0.7 0.4 1.1 0.3 0.4 0.7 0.6 0.5 0.2 1 0.2 0.7 0 1.1-0.2 0.4-0.3 0.6-0.5l0.6 1.2q-0.1 0.1-0.3 0.2-0.2 0.2-0.5 0.4-0.3 0.1-0.7 0.2-0.4 0.1-1 0.1-0.8 0-1.5-0.2-0.7-0.3-1.2-0.9-0.5-0.6-0.8-1.5-0.3-1-0.3-2.4 0-1.4 0.4-2.3 0.3-1 0.9-1.6 0.6-0.6 1.3-0.8 0.7-0.3 1.4-0.3 0.5 0 0.9 0.1 0.5 0.1 0.7 0.3 0.3 0.1 0.5 0.3 0.2 0.1 0.3 0.3zm-6.6-0.5q-0.1 0-0.3-0.1-0.2 0-0.5 0-0.8 0-1.2 0.4-0.4 0.4-0.6 0.9v7h-1.6v-9.6h1.5v1.3q0.1-0.3 0.3-0.5 0.1-0.3 0.4-0.5 0.2-0.2 0.5-0.4 0.3-0.1 0.8-0.1 0.3 0 0.6 0.1 0.2 0.1 0.3 0.1zm-12.7 5.7q0-0.8 0.3-1.4 0.4-0.5 0.9-0.9 0.5-0.3 1.2-0.5 0.8-0.1 1.6-0.1h0.5v-1q0-1.2-0.4-1.6-0.5-0.5-1.2-0.5-0.8 0-1.2 0.3-0.5 0.3-0.8 0.6l-0.7-1.1q0.2-0.2 0.4-0.4 0.3-0.2 0.6-0.3 0.4-0.2 0.9-0.3 0.4-0.2 1-0.2 1.5 0 2.2 0.9 0.8 0.8 0.8 2.6v4.3q0 0.7 0 1.2 0.1 0.6 0.1 0.8h-1.5l-0.1-1q-0.1 0.2-0.3 0.4-0.1 0.2-0.4 0.4-0.2 0.2-0.5 0.3-0.4 0.2-0.8 0.2-0.6 0-1-0.2-0.5-0.2-0.9-0.6-0.3-0.3-0.5-0.8-0.2-0.5-0.2-1.1zm2.9 1.3q0.3 0 0.6-0.1 0.2-0.1 0.4-0.2 0.2-0.2 0.4-0.3 0.1-0.2 0.2-0.3v-2.1h-0.5q-1.2 0-1.8 0.4-0.6 0.3-0.6 1.1 0 0.8 0.4 1.1 0.3 0.4 0.9 0.4zm-4.5-5.2q0 0.6 0 1.1 0 0.4-0.1 0.8h-4.8q0 1.7 0.7 2.4 0.6 0.8 1.8 0.8 0.4 0 0.8-0.1 0.3-0.1 0.6-0.2 0.2-0.1 0.4-0.3 0.2-0.1 0.2-0.2l0.6 1.1q-0.1 0.1-0.3 0.3-0.2 0.2-0.5 0.4-0.3 0.2-0.8 0.3-0.5 0.2-1.2 0.2-0.9 0-1.6-0.3-0.7-0.3-1.3-0.9-0.5-0.7-0.7-1.6-0.3-1-0.3-2.4 0-1.2 0.3-2.2 0.3-0.9 0.8-1.5 0.5-0.6 1.1-0.9 0.7-0.3 1.4-0.3 1.4 0 2.2 0.9 0.7 0.9 0.7 2.6zm-3-2.1q-0.8 0-1.4 0.7-0.5 0.7-0.5 2h3.4q0-0.1 0.1-0.2 0-0.2 0-0.5 0-1-0.4-1.5-0.4-0.5-1.2-0.5zm-5.9 0.8q-0.2-0.2-0.6-0.5-0.4-0.3-1.1-0.3-0.6 0-1 0.3-0.3 0.3-0.3 0.7 0 0.6 0.3 0.9 0.3 0.4 1 0.8l0.6 0.3q0.9 0.6 1.5 1.3 0.5 0.6 0.5 1.7 0 1.1-0.7 1.9-0.8 0.8-2.3 0.8-0.6 0-1-0.1-0.4-0.2-0.8-0.3-0.3-0.2-0.5-0.4-0.2-0.2-0.4-0.3l0.8-1.3q0.1 0.1 0.3 0.3 0.2 0.1 0.4 0.3 0.2 0.1 0.5 0.2 0.3 0.1 0.7 0.1 0.7 0 1.1-0.3 0.4-0.3 0.4-0.8 0-0.3-0.1-0.5-0.1-0.3-0.3-0.5-0.1-0.2-0.4-0.4-0.3-0.1-0.6-0.4l-0.6-0.3q-0.9-0.6-1.4-1.3-0.5-0.6-0.5-1.6 0-0.5 0.2-1 0.2-0.4 0.6-0.8 0.4-0.3 0.9-0.5 0.5-0.2 1.1-0.2 0.5 0 0.9 0.1 0.4 0.2 0.7 0.3 0.3 0.2 0.5 0.4 0.2 0.1 0.3 0.3zm-6.3 1.2q0 0.7 0 1.1-0.1 0.5-0.1 0.8h-4.9q0.1 1.7 0.8 2.5 0.6 0.8 1.8 0.8 0.4 0 0.8-0.1 0.3-0.1 0.6-0.3 0.2-0.1 0.4-0.2 0.2-0.2 0.2-0.3l0.6 1.2q-0.1 0.1-0.3 0.3-0.2 0.2-0.5 0.4-0.3 0.1-0.8 0.3-0.5 0.1-1.2 0.1-0.9 0-1.6-0.3-0.7-0.3-1.3-0.9-0.5-0.6-0.7-1.6-0.3-1-0.3-2.3 0-1.3 0.3-2.2 0.3-0.9 0.8-1.5 0.4-0.6 1.1-0.9 0.7-0.3 1.4-0.3 1.4 0 2.2 0.8 0.7 0.9 0.7 2.6zm-3-2.1q-0.8 0-1.4 0.7-0.5 0.7-0.6 2.1h3.5q0-0.1 0-0.3 0.1-0.2 0.1-0.4 0-1-0.4-1.6-0.4-0.5-1.2-0.5zm-6.5 8.5l-2.9-5.7q-0.2 0.1-0.4 0.1-0.3 0-0.5 0h-0.8v5.6h-1.7v-13.8h2.6q2.5 0 3.6 1 1.2 1 1.2 2.9 0 1.4-0.6 2.3-0.5 1-1.7 1.5l3.2 6.1zm-0.7-9.8q0-1.3-0.7-2-0.8-0.6-2.3-0.6h-0.8v5.4h0.7q1.6 0 2.3-0.7 0.8-0.8 0.8-2.1zm-19.7 5.1q0-1.4 0.4-2.4 0.3-1 0.9-1.6 0.6-0.6 1.4-0.8 0.7-0.3 1.5-0.3 0.4 0 0.8 0.1 0.3 0.1 0.5 0.2v-4.6l1.6-0.2v14.3h-1.4v-1h-0.1q0 0.1-0.2 0.3-0.1 0.2-0.4 0.4-0.3 0.2-0.7 0.4-0.4 0.1-1 0.1-0.7 0-1.3-0.2-0.6-0.3-1-0.9-0.5-0.6-0.8-1.5-0.2-0.9-0.2-2.3zm3.7 3.5q0.4 0 0.7-0.1 0.3-0.1 0.5-0.3 0.3-0.1 0.4-0.3 0.1-0.1 0.2-0.3v-5.8q-0.2-0.2-0.5-0.3-0.3-0.1-0.7-0.1-0.6 0-1 0.2-0.5 0.2-0.9 0.6-0.3 0.5-0.6 1.2-0.2 0.7-0.2 1.7 0 1 0.2 1.6 0.2 0.7 0.5 1.1 0.3 0.4 0.6 0.6 0.4 0.2 0.8 0.2zm-7.3 1.2v-6.2q0-1.2-0.4-1.7-0.4-0.5-1.2-0.5-0.8 0-1.2 0.3-0.5 0.4-0.8 0.7v7.4h-1.6v-9.6h1.5v1.1q0.1-0.1 0.3-0.4 0.2-0.2 0.5-0.4 0.3-0.2 0.7-0.4 0.5-0.1 1-0.1 0.7 0 1.2 0.2 0.5 0.2 0.9 0.6 0.3 0.4 0.5 1.1 0.2 0.6 0.2 1.6v6.3zm-13.7-2.4q0-0.9 0.4-1.4 0.3-0.6 0.8-0.9 0.5-0.4 1.3-0.5 0.7-0.2 1.5-0.2h0.5v-0.9q0-1.2-0.4-1.7-0.4-0.4-1.2-0.4-0.7 0-1.2 0.3-0.5 0.3-0.8 0.5l-0.6-1.1q0.1-0.1 0.4-0.3 0.2-0.2 0.6-0.4 0.3-0.2 0.8-0.3 0.4-0.1 1-0.1 1.5 0 2.2 0.8 0.8 0.8 0.8 2.6v4.4q0 0.6 0 1.2 0.1 0.6 0.1 0.8h-1.5l-0.1-1.1q-0.1 0.2-0.3 0.4-0.1 0.3-0.4 0.5-0.2 0.1-0.5 0.3-0.4 0.1-0.8 0.1-0.6 0-1-0.2-0.5-0.2-0.8-0.5-0.4-0.4-0.6-0.9-0.2-0.5-0.2-1zm2.9 1.2q0.4 0 0.6-0.1 0.3-0.1 0.5-0.2 0.1-0.1 0.3-0.3 0.1-0.2 0.2-0.3v-2.1h-0.5q-1.2 0.1-1.8 0.4-0.6 0.4-0.6 1.2 0 0.7 0.4 1.1 0.3 0.3 0.9 0.3zm83.5-18.9v-6.2q0-1.2-0.4-1.7-0.4-0.5-1.2-0.5-0.7 0-1.2 0.3-0.5 0.4-0.8 0.7v7.4h-1.6v-9.6h1.5v1.1h0.1q0-0.1 0.2-0.3 0.2-0.3 0.5-0.5 0.3-0.2 0.8-0.3 0.4-0.2 1-0.2 0.6 0 1.1 0.2 0.5 0.2 0.9 0.6 0.4 0.4 0.6 1.1 0.1 0.6 0.1 1.6v6.3zm-14.7-4.8q0-1.3 0.3-2.3 0.3-0.9 0.8-1.5 0.6-0.6 1.3-0.9 0.6-0.3 1.4-0.3 0.8 0 1.5 0.3 0.7 0.3 1.2 0.9 0.5 0.6 0.7 1.5 0.3 1 0.3 2.3 0 1.3-0.3 2.3-0.3 1-0.8 1.6-0.5 0.6-1.2 0.9-0.7 0.2-1.5 0.2-0.8 0-1.5-0.2-0.6-0.3-1.1-0.9-0.5-0.6-0.8-1.6-0.3-0.9-0.3-2.3zm5.9 0q0-1.9-0.6-2.8-0.6-0.8-1.5-0.8-1 0-1.6 0.8-0.5 0.9-0.5 2.8 0 1.9 0.5 2.8 0.6 0.8 1.6 0.8 1 0 1.5-0.8 0.6-0.9 0.6-2.8zm-8.7-7.1q-0.5 0-0.8-0.3-0.3-0.3-0.3-0.8 0-0.5 0.3-0.9 0.3-0.3 0.8-0.3 0.5 0 0.8 0.3 0.3 0.4 0.3 0.9 0 0.5-0.3 0.8-0.3 0.3-0.8 0.3zm0.8 11.9h-1.6v-9.6h1.6zm-3.4-8.2h-2.1v5.3q0 1 0.2 1.4 0.3 0.3 0.9 0.3 0.4 0 0.6-0.1 0.3-0.1 0.4-0.1l0.2 1.3q-0.1 0-0.5 0.2-0.3 0.2-1 0.2-1.2 0-1.8-0.7-0.6-0.7-0.6-2.3v-5.5h-1.2v-1.1l1.2-0.2 0.1-2.7h1.5v2.7h2.2zm-12.5 5.8q0-0.9 0.3-1.4 0.3-0.6 0.9-0.9 0.5-0.4 1.2-0.5 0.8-0.2 1.6-0.2h0.5v-0.9q0-1.2-0.5-1.7-0.4-0.4-1.2-0.4-0.7 0-1.1 0.3-0.5 0.3-0.8 0.5l-0.7-1q0.2-0.2 0.4-0.4 0.3-0.2 0.6-0.4 0.4-0.1 0.8-0.3 0.5-0.1 1.1-0.1 1.5 0 2.2 0.8 0.8 0.8 0.8 2.7v4.3q0 0.6 0 1.2 0 0.6 0.1 0.8h-1.5l-0.1-1h-0.1q0 0.1-0.2 0.4-0.1 0.2-0.4 0.4-0.2 0.2-0.6 0.3-0.3 0.2-0.8 0.2-0.5 0-1-0.2-0.4-0.2-0.8-0.6-0.3-0.4-0.5-0.8-0.2-0.5-0.2-1.1zm2.9 1.3q0.3 0 0.6-0.1 0.2-0.1 0.4-0.3 0.2-0.1 0.3-0.3 0.2-0.1 0.3-0.3v-2.1l-0.5 0.1q-1.2 0-1.8 0.4-0.6 0.3-0.6 1.1 0 0.7 0.4 1.1 0.3 0.4 0.9 0.4zm-4.7-6.6q-0.1-0.1-0.2-0.2-0.1-0.1-0.3-0.2-0.2-0.1-0.5-0.2-0.3-0.1-0.6-0.1-0.5 0-1 0.2-0.4 0.2-0.8 0.6-0.3 0.4-0.5 1.1-0.2 0.6-0.2 1.6 0 1.1 0.2 1.8 0.2 0.7 0.5 1.1 0.3 0.4 0.7 0.6 0.4 0.2 0.9 0.2 0.8 0 1.2-0.2 0.3-0.3 0.5-0.5l0.7 1.2q-0.1 0.1-0.3 0.2-0.2 0.2-0.5 0.4-0.3 0.1-0.7 0.2-0.5 0.2-1 0.2-0.8 0-1.5-0.3-0.7-0.3-1.2-0.9-0.5-0.6-0.8-1.5-0.3-1-0.3-2.4 0-1.4 0.3-2.3 0.4-1 1-1.6 0.5-0.5 1.2-0.8 0.7-0.3 1.5-0.3 0.5 0 0.9 0.1 0.4 0.1 0.7 0.3 0.3 0.1 0.5 0.3 0.2 0.2 0.3 0.3zm-7.8 7.7h-1.4v-1.1h-0.1q0 0.1-0.2 0.4-0.2 0.2-0.5 0.4-0.4 0.2-0.8 0.4-0.4 0.1-1 0.1-0.6 0-1.1-0.2-0.5-0.2-0.9-0.6-0.3-0.4-0.5-1.1-0.2-0.6-0.2-1.6v-6.3h1.6v6.2q0 1.2 0.4 1.7 0.4 0.5 1.2 0.5 0.7 0 1.2-0.4 0.4-0.3 0.7-0.7v-7.3h1.6zm-16.3-4.6q0-1.5 0.4-2.5 0.4-0.9 1-1.5 0.6-0.6 1.3-0.9 0.8-0.2 1.5-0.2 0.5 0 0.8 0 0.4 0.1 0.6 0.2v-4.6l1.6-0.1v14.2h-1.5v-1q-0.1 0.1-0.2 0.3-0.2 0.2-0.5 0.5-0.2 0.2-0.7 0.3-0.4 0.2-0.9 0.2-0.7 0-1.3-0.3-0.6-0.3-1.1-0.9-0.4-0.6-0.7-1.5-0.3-0.9-0.3-2.2zm3.8 3.4q0.4 0 0.7-0.1 0.3-0.1 0.5-0.2 0.2-0.2 0.4-0.3 0.1-0.2 0.2-0.3v-5.9q-0.2-0.1-0.5-0.2-0.3-0.1-0.7-0.1-0.6 0-1.1 0.1-0.5 0.2-0.8 0.7-0.4 0.4-0.6 1.1-0.2 0.7-0.2 1.7 0 1 0.2 1.7 0.1 0.6 0.4 1.1 0.3 0.4 0.7 0.5 0.4 0.2 0.8 0.2zm-5.7-11.2h-4.8v4.8h4.5v1.4h-4.5v4.8h5.3l-0.1 1.4h-7v-13.7h6.8zm-12.4 4.1h-2v8.2h-1.6v-8.2h-1.1v-1.1l1.1-0.2v-1.9q0-0.8 0.3-1.3 0.2-0.6 0.5-1 0.4-0.3 0.9-0.5 0.4-0.1 1-0.1 0.5 0 0.8 0.1 0.4 0.1 0.5 0.2l-0.3 1.4q-0.1-0.1-0.3-0.2-0.3-0.1-0.6-0.1-0.6 0-0.9 0.4-0.3 0.3-0.3 1.3v1.7h2.2zm-13.4 3.5q0-1.4 0.3-2.3 0.3-1 0.8-1.6 0.5-0.6 1.2-0.9 0.7-0.3 1.5-0.3 0.8 0 1.4 0.3 0.7 0.3 1.2 0.9 0.5 0.6 0.8 1.6 0.3 0.9 0.3 2.3 0 1.3-0.3 2.2-0.3 1-0.8 1.6-0.6 0.6-1.3 0.9-0.7 0.3-1.4 0.3-0.8 0-1.5-0.3-0.7-0.3-1.2-0.9-0.5-0.6-0.8-1.5-0.2-1-0.2-2.3zm5.8 0q0-2-0.5-2.8-0.6-0.9-1.6-0.9-1 0-1.5 0.9-0.6 0.8-0.6 2.8 0 1.9 0.6 2.7 0.5 0.8 1.5 0.8 1 0 1.6-0.8 0.5-0.8 0.5-2.7zm108.2-24.9l-3 10.1q-0.5 1.8-1.3 2.7-0.7 0.8-2.1 0.8-0.3 0-0.5 0-0.2-0.1-0.3-0.1v-1.4q0.1 0 0.2 0.1 0.2 0 0.5 0 0.8 0 1.3-0.5 0.4-0.6 0.7-1.7l0.2-0.5-3.1-9.5h1.7l1.5 5.3q0.2 0.8 0.4 1.5 0.2 0.7 0.2 1.3h0.1q0-0.6 0.2-1.3 0.1-0.7 0.3-1.5l1.4-5.3zm-8 1.4q0 0-0.2-0.1-0.2-0.1-0.6-0.1-0.7 0-1.1 0.4-0.5 0.5-0.6 0.9v7h-1.7v-9.5h1.5v1.3h0.1q0.1-0.3 0.2-0.6 0.2-0.2 0.4-0.5 0.2-0.2 0.6-0.3 0.3-0.1 0.8-0.1 0.3 0 0.5 0.1 0.2 0 0.3 0.1zm-6-0.1h-2.1v5.3q0 1 0.3 1.3 0.3 0.4 0.9 0.4 0.3 0 0.6-0.1 0.2-0.1 0.4-0.2l0.2 1.3q-0.1 0.1-0.5 0.3-0.4 0.1-1 0.1-1.2 0-1.9-0.6-0.6-0.7-0.6-2.3v-5.5h-1.1v-1.1l1.1-0.3 0.2-2.6h1.4v2.6h2.3zm-6.9 0.7q-0.1-0.2-0.6-0.5-0.4-0.3-1.1-0.3-0.6 0-0.9 0.3-0.4 0.3-0.4 0.7 0 0.5 0.3 0.9 0.4 0.3 1 0.7l0.6 0.4q1 0.6 1.5 1.2 0.6 0.7 0.6 1.7 0 1.2-0.8 2-0.8 0.7-2.3 0.7-0.5 0-1-0.1-0.4-0.1-0.7-0.3-0.4-0.1-0.6-0.3-0.2-0.2-0.3-0.4l0.7-1.2q0.1 0.1 0.3 0.2 0.2 0.2 0.4 0.4 0.3 0.1 0.6 0.2 0.2 0.1 0.7 0.1 0.7 0 1-0.3 0.4-0.3 0.4-0.8 0-0.3-0.1-0.6-0.1-0.2-0.2-0.4-0.2-0.2-0.5-0.4-0.2-0.2-0.6-0.4l-0.6-0.4q-0.9-0.6-1.4-1.2-0.5-0.6-0.5-1.6 0-0.6 0.2-1 0.2-0.5 0.6-0.8 0.4-0.3 0.9-0.5 0.5-0.2 1.1-0.2 0.5 0 0.9 0.1 0.4 0.1 0.7 0.3 0.3 0.2 0.5 0.3 0.2 0.2 0.3 0.3zm-7.4-4.2q-0.5 0-0.7-0.4-0.3-0.3-0.3-0.8 0-0.5 0.3-0.8 0.2-0.3 0.7-0.3 0.5 0 0.8 0.3 0.3 0.3 0.3 0.8 0 0.5-0.3 0.8-0.3 0.4-0.8 0.4zm0.8 11.8h-1.6v-9.5h1.6zm-5.6 0v-6.2q0-1.2-0.4-1.7-0.4-0.5-1.2-0.5-0.7 0-1.2 0.3-0.5 0.4-0.8 0.7v7.4h-1.6v-9.6h1.5v1.1q0.1-0.1 0.3-0.4 0.2-0.2 0.5-0.4 0.3-0.2 0.8-0.4 0.4-0.1 1-0.1 0.6 0 1.1 0.2 0.5 0.2 0.9 0.6 0.3 0.4 0.5 1.1 0.2 0.6 0.2 1.6v6.3zm-8.4-11.9q-0.5 0-0.8-0.3-0.3-0.3-0.3-0.9 0-0.4 0.3-0.8 0.3-0.3 0.8-0.3 0.5 0 0.8 0.3 0.3 0.4 0.3 0.8 0 0.6-0.3 0.9-0.3 0.3-0.8 0.3zm0.8 11.9h-1.6v-9.6h1.6zm-4.4-13.7v13.7h-1.7c0-0.4 0-7.3 0-7.7q0-0.6 0-1.2 0-0.5 0-0.9 0.1-0.4 0.1-0.6h-0.1q-0.1 0.5-0.4 1.5-0.3 1-0.7 2.2l-2.2 6.7h-1.4l-2.3-6.7q-0.4-1.2-0.7-2.2-0.3-1-0.4-1.5 0 0.3 0 0.7 0 0.4 0 0.9 0 0.5 0 1.1 0 0.6 0 1.2v6.5h-1.6v-13.7h1.9l3.2 9.5q0.2 0.6 0.4 1.2 0.2 0.7 0.2 1.1h0.1q0-0.4 0.1-1.1 0.2-0.6 0.4-1.2l3.3-9.5zm-18.9 11.5q0 0.6 0.1 0.8 0.2 0.3 0.6 0.3 0.3 0 0.4-0.1 0.1 0 0.2-0.1l0.2 1.2q-0.2 0.1-0.5 0.2-0.3 0.1-0.8 0.1-0.8 0-1.3-0.5-0.5-0.5-0.5-1.8v-12l1.6-0.1zm-10.1-0.2q0-0.9 0.3-1.4 0.4-0.6 0.9-0.9 0.5-0.4 1.2-0.5 0.8-0.2 1.6-0.2h0.5v-0.9q0-1.2-0.4-1.7-0.5-0.4-1.2-0.4-0.8 0-1.2 0.3-0.5 0.3-0.8 0.5l-0.7-1.1q0.2-0.1 0.4-0.3 0.3-0.2 0.6-0.4 0.4-0.2 0.9-0.3 0.4-0.1 1-0.1 1.5 0 2.2 0.8 0.8 0.8 0.8 2.6v4.4q0 0.6 0 1.2 0.1 0.6 0.1 0.8h-1.5l-0.1-1.1q-0.1 0.2-0.3 0.4-0.1 0.3-0.4 0.5-0.2 0.1-0.5 0.3-0.4 0.1-0.8 0.1-0.6 0-1-0.2-0.5-0.2-0.9-0.5-0.3-0.4-0.5-0.9-0.2-0.5-0.2-1zm2.9 1.2q0.3 0 0.6-0.1 0.2-0.1 0.4-0.2 0.2-0.1 0.4-0.3 0.1-0.2 0.2-0.3v-2.1h-0.5q-1.2 0.1-1.8 0.4-0.6 0.4-0.6 1.2 0 0.7 0.4 1.1 0.3 0.3 0.9 0.3zm-3.8-7q-0.1 0-0.3-0.1-0.2 0-0.5 0-0.8 0-1.2 0.4-0.4 0.4-0.6 0.9v7h-1.6v-9.6h1.5v1.3q0.1-0.3 0.3-0.5 0.1-0.3 0.4-0.5 0.2-0.2 0.5-0.3 0.4-0.2 0.8-0.2 0.3 0 0.6 0.1 0.2 0.1 0.3 0.1zm-6.3 1.8q0 0.6-0.1 1.1 0 0.4-0.1 0.8h-4.8q0.1 1.7 0.7 2.5 0.6 0.8 1.9 0.8 0.4 0 0.7-0.1 0.3-0.1 0.6-0.3 0.2-0.1 0.4-0.3 0.2-0.1 0.3-0.2l0.6 1.2q-0.1 0.1-0.3 0.2-0.2 0.2-0.6 0.4-0.3 0.2-0.8 0.3-0.5 0.2-1.2 0.2-0.9 0-1.6-0.3-0.7-0.3-1.2-0.9-0.5-0.7-0.8-1.6-0.3-1-0.3-2.4 0-1.2 0.3-2.2 0.3-0.9 0.8-1.5 0.5-0.6 1.1-0.9 0.7-0.3 1.4-0.3 1.4 0 2.2 0.9 0.8 0.9 0.8 2.6zm-3.1-2.1q-0.8 0-1.3 0.7-0.5 0.7-0.6 2h3.4q0.1-0.1 0.1-0.2 0-0.2 0-0.4 0-1-0.4-1.6-0.4-0.5-1.2-0.5zm-12.7 3.8q0-1.4 0.4-2.4 0.4-1 1-1.6 0.6-0.6 1.3-0.8 0.8-0.3 1.5-0.3 0.5 0 0.8 0.1 0.4 0 0.6 0.1v-4.5l1.6-0.2v14.2h-1.5v-1q-0.1 0.2-0.2 0.4-0.2 0.2-0.5 0.4-0.3 0.2-0.7 0.3-0.4 0.2-0.9 0.2-0.7 0-1.3-0.3-0.6-0.3-1.1-0.8-0.4-0.6-0.7-1.6-0.3-0.9-0.3-2.2zm3.8 3.5q0.4 0 0.7-0.1 0.3-0.1 0.5-0.3 0.2-0.1 0.3-0.3 0.2-0.2 0.3-0.3v-5.9q-0.2-0.1-0.5-0.2-0.3-0.1-0.8-0.1-0.5 0-1 0.2-0.5 0.2-0.8 0.6-0.4 0.4-0.6 1.1-0.2 0.7-0.2 1.7 0 1 0.2 1.7 0.1 0.7 0.4 1.1 0.3 0.4 0.7 0.6 0.4 0.2 0.8 0.2zm-5.5-5.2q0 0.6 0 1.1-0.1 0.4-0.1 0.8h-4.9q0.1 1.7 0.8 2.5 0.6 0.8 1.8 0.8 0.4 0 0.8-0.1 0.3-0.1 0.6-0.3 0.2-0.1 0.4-0.3 0.1-0.1 0.2-0.2l0.6 1.2q-0.1 0.1-0.3 0.2-0.2 0.2-0.5 0.4-0.4 0.2-0.9 0.3-0.4 0.2-1.1 0.2-0.9 0-1.6-0.3-0.8-0.3-1.3-0.9-0.5-0.7-0.8-1.6-0.2-1-0.2-2.4 0-1.2 0.3-2.2 0.2-0.9 0.7-1.5 0.5-0.6 1.2-0.9 0.6-0.3 1.4-0.3 1.4 0 2.1 0.9 0.8 0.9 0.8 2.6zm-3-2.1q-0.9 0-1.4 0.7-0.5 0.7-0.6 2h3.5q0-0.1 0-0.2 0-0.2 0-0.4 0-1-0.3-1.6-0.4-0.5-1.2-0.5zm-11.5 8.4v-13.7h6.8l-0.2 1.4h-4.8v5.1h4.5v1.3h-4.5v5.9z"/><path fill-rule="evenodd" class="a" d="m32.2 11.5q-0.2 0.5-0.4 1l3.2 5.1c0.5 0.8 1.6 2.4 3.3 3.7-2.1 0-3.4 0.1-5.1-2.6l-2.7-4.4q-0.3 0.3-0.7 0.6l3.9 6.2c0.5 0.9 1.6 2.5 3.3 3.8-2 0-3.4 0-5.1-2.7l-3.8-6q-0.3 0.2-0.7 0.4l4.6 7.4c0.5 0.9 1.6 2.5 3.3 3.8-2 0-3.4 0-5.1-2.7l-4.7-7.6q-0.4 0.2-0.9 0.3l5.4 8.6c0.5 0.8 1.6 2.5 3.3 3.8-2 0-3.4 0-5.1-2.7l-5.7-9.2q-0.1 0.1-0.2 0.1c-0.1 0.5-0.2 0.9-0.2 1.4 0 2.9 1.9 5.4 4.1 7.4-0.1 0-0.4 0.1-0.6 0.1-0.5 0-0.8-0.1-1-0.1 0.5 1.2 1.7 2.7 2.2 3.5 0.8-0.1 1.8-0.2 2.5-0.2 0.8 0 0.9 0.4 0.9 0.8 0 0.7-0.3 1.2-0.7 1.5-0.1-0.3-0.4-0.8-1.8-0.8q0 0-0.1 0c0.4 0.5 1.6 1.5 1.6 2.3 0 0.5-0.6 1.3-1.3 1.3 0-0.1 0-0.3 0-0.4 0-0.7-0.6-1.4-1.1-2 0 0.2 0 0.2 0 0.3 0 1.6-0.1 2.3-1.1 2.3-0.5 0-0.8-0.2-0.9-0.3 0.6-0.6 0.6-1.1 0.6-2 0-0.2 0-0.4 0-0.7 0-0.2 0-0.5 0.1-0.7-0.4 0-0.5 0-0.8 0 0 0-1.4-0.1-1.7 0.6-0.4-0.3-1-0.8-1-1.4 0-0.3 0.2-0.8 0.9-0.8 0.3 0 1.2 0.2 1.9 0.2-0.2-0.4-1.1-1.7-1.8-2.6-0.1 0.4-0.3 0.7-0.7 1.1 0-0.6-0.4-2.5-1.3-3.6-0.1 0.8-0.3 1.5-0.3 3.1 0 3.9 1 6.7 2.9 7.3-0.2 0.4-0.8 0.8-1.3 0.8-0.7 0-1.1-0.8-1.5-1.6-0.2 0.6-0.8 2-1.4 2-0.6 0-1.1-1.4-1.4-2-0.4 0.8-0.7 1.6-1.5 1.6-0.5 0-1.1-0.4-1.3-0.8 1.9-0.6 2.9-3.4 2.9-7.3 0-1.6-0.2-2.3-0.3-3.1-0.9 1.1-1.2 3-1.3 3.6-0.4-0.4-0.6-0.7-0.7-1.1-0.7 0.9-1.6 2.2-1.8 2.6 0.7 0 1.6-0.2 1.9-0.2 0.7 0 0.9 0.5 0.9 0.8 0 0.6-0.6 1.1-1 1.4-0.3-0.7-1.7-0.6-1.7-0.6-0.3 0-0.4 0-0.8 0 0.1 0.2 0.1 0.5 0.1 0.7 0 0.3 0 0.5 0 0.7 0 0.9 0 1.4 0.6 2-0.1 0.1-0.4 0.3-0.9 0.3-1 0-1.1-0.7-1.1-2.3 0-0.1 0-0.1 0-0.3-0.5 0.6-1.1 1.3-1.1 2 0 0.1 0 0.3 0 0.4-0.7 0-1.3-0.8-1.3-1.3 0-0.8 1.2-1.8 1.6-2.3q-0.1 0-0.1 0c-1.4 0-1.6 0.5-1.8 0.8-0.3-0.3-0.7-0.8-0.7-1.5 0-0.4 0.1-0.8 0.9-0.8 0.7 0 1.7 0.1 2.5 0.2 0.5-0.8 1.7-2.3 2.2-3.5-0.2 0-0.5 0.1-1 0.1-0.2 0-0.5-0.1-0.6-0.1 2.2-2 4.1-4.5 4.1-7.4 0-0.5-0.1-0.9-0.2-1.4q-0.1 0-0.2-0.1l-5.7 9.2c-1.7 2.7-3.1 2.7-5.1 2.7 1.7-1.3 2.8-3 3.3-3.8l5.4-8.6q-0.5-0.1-0.9-0.3l-4.7 7.6c-1.7 2.7-3.1 2.7-5.1 2.7 1.7-1.3 2.8-2.9 3.3-3.8l4.6-7.4q-0.4-0.2-0.7-0.4l-3.8 6c-1.7 2.7-3 2.7-5.1 2.7 1.7-1.3 2.8-2.9 3.3-3.8l3.9-6.2q-0.3-0.3-0.7-0.6l-2.7 4.4c-1.7 2.7-3 2.6-5 2.6 1.6-1.3 2.7-2.9 3.3-3.7l3.1-5.1q-0.2-0.5-0.4-1l-1.6 2.5c-1.7 2.8-3 2.7-5.1 2.7 1.7-1.3 2.8-2.9 3.3-3.8l3.2-5c0.3-1.5 1.1-3 2.2-4-0.4-0.2-0.7-0.4-0.9-0.5 2 0 4.1-1 5.2-1 0.7 0 1.2 0.4 1.2 1-0.1 0.6-0.7 1.2-1.9 1.2q-0.5 0-1-0.1c-0.7 0.9-1.2 1.7-1.2 2.9 0 2.2 2.6 3.9 5.2 3.9q0.3 0 0.5 0c0.5-1.8 1.6-2.9 2.5-4.1-1.1-0.4-2.2-1.4-2.2-1.8q0-0.1 0-0.1c1.2 0.5 1.4 0.5 2.3 0.7q0.1 0 0.2 0c0.2-0.1 0.5-0.5 0.5-0.5-0.3-0.1-1.6-0.2-2.4-0.5-0.7-0.3-1-0.7-1-0.9q0 0 0 0c0.2 0 1 0.4 2.2 0.4 0.4 0 0.5 0 0.9-0.1-0.3-0.7-0.9-1.3-1.5-1.3-0.3 0-0.8 0.2-1.3 0.4-0.3-0.5-0.6-1.2-0.6-1.6 0-0.4 0.4-0.9 1.6-0.9q0.5 0 1 0.1 0.3 0 0.6 0.1 0 0 0-0.1c0-0.2 0.2-0.4 0.7-0.4 1 0 2.1 0.4 3.3 0.4 0.4 0 0.6 0 0.8-0.1-0.1 0.2-0.5 0.6-0.8 0.9 0.2 0.3 0.7 0.9 0.7 2 0 1.7-1.1 3.2-1.1 4.9 0 1 0.8 2 1 2.5q0.2 0 0.5 0c2.6 0 5.2-1.7 5.2-3.9 0-1.2-0.5-2-1.2-2.9q-0.5 0.1-1 0.1c-1.1 0-1.8-0.6-1.8-1.2 0-0.6 0.4-1 1.1-1 1.1 0 3.2 1 5.2 1-0.2 0.1-0.5 0.3-0.9 0.5 1.2 1 1.9 2.5 2.3 4l3.1 5c0.5 0.9 1.6 2.5 3.3 3.8-2 0-3.4 0.1-5.1-2.7zm-11.4-9.6c0.1 0.4-0.5 0.7-0.5 0.7 0 0-0.2-0.5 0.1-0.8-0.6-0.3-0.7 0-0.7 0.4q0.3 0.4 0.4 0.9c0.9 0.2 1.6-1 0.7-1.2zm-1.1 1.7c0-1.3-1.1-2.1-2.8-2.1-0.8 0-1.2 0.3-1.2 0.5 0 0.2 0.3 0.8 0.4 1 0.3-0.2 0.8-0.3 1.1-0.3 0.6 0 1.1 0.4 1.4 0.8 0.3 0.3 0.6 0.9 0.7 1.3 0.2-0.3 0.4-0.7 0.4-1.2zm3.5 24.2q1.7 2.1 2.2 3.3v0.1h-0.1c-1.1 0-1.6-0.1-1.9-0.1q-0.3-0.1-0.5-0.1c-0.2 0-0.5 0-0.5 0.4 0 0.2 0.3 0.6 0.6 0.8 0.4-0.4 0.9-0.5 1.7-0.5 0.4 0 0.9 0.1 1.1 0.1l0.1 0.1v0.1q0 0.3-0.1 0.9v0.3 0.4c0 0.9-0.1 1.4-0.4 1.8 0.1 0.1 0.2 0.1 0.3 0.1 0.6 0 0.7-0.3 0.7-1.9 0-0.3 0.1-0.6 0.1-0.8v-0.3c0.9 0.7 1.7 1.8 1.8 2.7 0.3-0.2 0.5-0.6 0.5-0.8 0-0.5-0.7-1.2-1.5-2l-0.5-0.6h0.1c0.2 0 0.5-0.1 0.8-0.1 0.9 0 1.5 0.2 1.8 0.5 0.2-0.1 0.3-0.6 0.3-0.8q0-0.3-0.1-0.4c-0.1 0-0.2 0-0.3 0h-0.1c-1 0-2.2 0.1-2.6 0.2h-0.1c0-0.1-2-2.7-2.4-4-0.2-0.1-0.3-0.1-0.5-0.1-0.3 0-0.4 0.3-0.5 0.7zm-7.5 0c-0.2-0.4-0.3-0.7-0.6-0.7-0.2 0-0.3 0-0.4 0.1-0.5 1.3-2.5 3.9-2.5 4h-0.1c-0.4-0.1-1.6-0.2-2.6-0.2h-0.1c-0.1 0-0.2 0-0.3 0q-0.1 0.1-0.1 0.4c0 0.2 0.1 0.7 0.3 0.8 0.3-0.3 0.9-0.5 1.8-0.5 0.3 0 0.6 0.1 0.8 0.1h0.1v0.1l-0.5 0.5c-0.8 0.8-1.5 1.5-1.5 2 0 0.2 0.3 0.6 0.5 0.8 0.1-0.9 0.9-2 1.8-2.7v0.3c0.1 0.2 0.1 0.5 0.1 0.8 0 1.6 0.1 1.9 0.7 1.9 0.1 0 0.2 0 0.3-0.1-0.3-0.4-0.4-0.9-0.4-1.8v-0.4-0.3q0-0.6-0.1-0.9v-0.1-0.1h0.1c0.2 0 0.7-0.1 1.1-0.1 0.8 0 1.3 0.1 1.7 0.5 0.3-0.2 0.6-0.6 0.6-0.8 0-0.4-0.3-0.4-0.5-0.4-0.2 0-0.3 0-0.5 0.1-0.3 0-0.8 0.1-1.9 0.1h-0.1v-0.1q0.5-1.2 2.3-3.3zm-0.3-13.1q0-0.5 0-1.2 0-0.4 0-0.7c-3.3 0-6.3-2.4-6.3-5.2 0-1.4 0.9-2.5 1.4-3.1q-0.2-0.1-0.3-0.1c-0.5 0.4-1.9 1.9-1.9 3.8 0 3.4 3.3 6.5 7.1 6.5zm15.1-6.5c0-1.9-1.4-3.4-1.9-3.8q-0.1 0-0.3 0.1c0.5 0.6 1.4 1.7 1.4 3.1 0 2.7-2.9 5.1-6.2 5.2q0 0.4 0 0.7 0 0.6-0.1 1.2c3.8-0.1 7.1-3.2 7.1-6.5z"/><path class="b" d="m52.3 69.3h2.5v33.5h-5.8v-33.5z"/><path class="c" d="m52.3 35.7h2.5v33.6h-5.8v-33.6z"/><path class="a" d="m54.8 2.3v33.5h-5.8v-33.5z"/></svg>